<?xml version="1.0" standalone="no"?>
<!DOCTYPE svg PUBLIC "-//W3C//DTD SVG 20010904//EN"
 "http://www.w3.org/TR/2001/REC-SVG-20010904/DTD/svg10.dtd">
<svg version="1.0" xmlns="http://www.w3.org/2000/svg"
 width="637.000000pt" height="392.000000pt" viewBox="0 0 637.000000 392.000000"
 preserveAspectRatio="xMidYMid meet">

<g transform="translate(0.000000,392.000000) scale(0.100000,-0.100000)"
fill="#000000" stroke="none">
<path d="M3036 3449 c-18 -21 -26 -42 -26 -70 0 -45 14 -50 54 -18 22 17 26
28 26 70 0 59 -16 64 -54 18z"/>
<path d="M3280 3431 c0 -42 4 -53 26 -70 42 -33 54 -27 54 24 0 35 -6 52 -25
70 -39 40 -55 33 -55 -24z"/>
<path d="M3070 3240 c0 -5 5 -10 10 -10 6 0 10 5 10 10 0 6 -4 10 -10 10 -5 0
-10 -4 -10 -10z"/>
<path d="M3110 3240 c0 -5 5 -10 10 -10 6 0 10 5 10 10 0 6 -4 10 -10 10 -5 0
-10 -4 -10 -10z"/>
<path d="M3240 3240 c0 -5 5 -10 10 -10 6 0 10 5 10 10 0 6 -4 10 -10 10 -5 0
-10 -4 -10 -10z"/>
<path d="M3283 3236 c0 -8 6 -12 14 -9 7 3 10 9 7 14 -8 14 -21 11 -21 -5z"/>
<path d="M2642 3088 c-8 -8 -12 -63 -12 -191 0 -157 2 -178 15 -167 11 9 15
46 17 174 l3 161 173 3 c132 2 173 5 169 15 -5 17 -348 22 -365 5z"/>
<path d="M3367 3093 c-19 -19 7 -23 166 -25 l172 -3 3 -161 c2 -128 6 -165 17
-174 13 -11 15 10 15 167 0 126 -4 183 -12 191 -13 13 -349 18 -361 5z"/>
<path d="M3232 3005 c0 -16 2 -22 5 -12 2 9 2 23 0 30 -3 6 -5 -1 -5 -18z"/>
<path d="M3060 2923 c0 -64 -6 -75 -78 -123 -22 -15 -20 -17 91 -117 l114
-101 112 100 c62 56 109 104 104 108 -4 3 -27 21 -50 39 -42 32 -43 34 -43 93
l0 60 -42 -36 c-52 -45 -96 -48 -153 -9 -22 14 -43 31 -47 37 -4 6 -8 -17 -8
-51z"/>
<path d="M2738 2775 c-3 -6 -13 -35 -21 -65 -21 -72 -68 -142 -125 -186 -25
-18 -49 -34 -53 -34 -5 0 -9 -7 -9 -15 0 -19 4 -19 42 1 30 16 31 16 25 -8
-59 -238 -108 -474 -103 -494 8 -30 66 -58 108 -52 l28 5 0 -112 c0 -73 4
-115 12 -123 9 -9 133 -12 496 -12 430 0 483 2 472 15 -8 10 -31 15 -68 15
l-55 0 6 60 c5 55 3 60 -20 75 -16 11 -23 24 -22 38 2 12 -3 32 -9 45 -16 28
-5 28 25 0 13 -12 26 -18 30 -14 9 9 28 304 20 313 -4 3 -80 -4 -169 -16
l-162 -22 -163 22 c-90 12 -165 20 -168 17 -3 -2 2 -103 10 -224 8 -120 15
-236 15 -257 l0 -38 -107 3 -108 3 -3 135 c-3 133 -2 139 53 380 65 284 65
282 74 256 6 -15 10 -9 21 30 7 27 31 96 52 153 21 57 38 106 38 108 0 2 -26
3 -57 1 -52 -3 -58 -5 -61 -26 -4 -29 -25 -24 -32 9 -3 13 -8 19 -12 14z"/>
<path d="M3497 2713 c14 -37 38 -106 53 -152 15 -46 30 -77 33 -70 7 20 9 13
71 -259 49 -213 56 -256 56 -349 0 -95 2 -105 14 -87 14 19 15 19 22 -1 4 -11
15 -25 23 -31 12 -9 13 -15 3 -26 -15 -19 8 -54 30 -46 25 10 52 78 42 107 -8
22 -16 26 -57 29 l-47 3 0 48 c0 46 1 47 28 43 42 -6 100 22 108 52 5 20 -44
256 -103 494 -6 24 -5 24 25 8 38 -20 42 -20 42 -1 0 8 -4 15 -9 15 -4 0 -28
16 -53 34 -57 44 -104 114 -125 186 -20 71 -26 80 -33 51 -7 -33 -28 -38 -32
-9 -3 21 -9 23 -60 26 l-57 3 26 -68z"/>
<path d="M4094 1816 c-28 -28 -34 -42 -34 -76 0 -49 23 -94 57 -109 13 -6 71
-11 130 -11 104 0 106 0 146 -32 33 -26 39 -29 33 -13 -14 36 -11 39 36 45 56
7 84 30 99 80 14 47 -2 101 -38 130 -24 18 -40 20 -210 20 l-185 0 -34 -34z
m354 -48 c17 -17 15 -58 -4 -65 -36 -13 -68 33 -44 62 15 18 32 19 48 3z
m-220 -10 c19 -19 14 -56 -8 -63 -24 -8 -50 10 -50 34 0 19 19 41 35 41 6 0
16 -5 23 -12z m120 -17 c5 -32 -23 -54 -49 -40 -19 10 -26 49 -12 63 4 4 19 6
33 4 18 -2 26 -10 28 -27z"/>
<path d="M2151 1774 c-25 -32 -28 -66 -6 -58 8 4 15 10 15 14 0 5 21 8 46 8
30 0 52 7 66 19 20 18 20 18 -9 30 -48 21 -89 16 -112 -13z"/>
<path d="M2140 1683 c0 -4 5 -15 10 -23 8 -13 10 -13 10 2 0 9 -4 20 -10 23
-5 3 -10 3 -10 -2z"/>
<path d="M3744 1639 c-52 -26 -81 -166 -69 -324 6 -77 10 -93 16 -71 4 16 17
38 27 50 11 11 32 44 47 73 l27 52 -37 65 c-20 36 -35 75 -33 87 4 26 29 44
51 36 21 -8 97 -165 97 -200 0 -18 -19 -49 -60 -96 -33 -39 -60 -79 -60 -89 0
-11 -7 -26 -16 -33 -14 -11 -18 -11 -29 4 -7 9 -14 17 -16 17 -2 0 -3 -34 -1
-76 l4 -76 -330 4 c-182 1 -334 0 -338 -5 -4 -4 50 -7 119 -7 l127 0 0 -322
c0 -177 3 -319 6 -316 3 3 6 147 7 320 l2 313 205 0 205 0 7 -120 c4 -66 14
-193 24 -281 9 -89 14 -168 11 -177 -3 -8 -29 -26 -58 -41 l-53 -26 46 0 c25
0 65 3 89 6 l44 6 -1 212 c0 151 4 229 14 274 8 34 17 62 21 62 3 0 16 -26 29
-57 12 -32 64 -127 116 -212 l95 -154 -19 -36 c-11 -20 -27 -46 -36 -59 -16
-21 -15 -22 7 -22 26 0 109 83 109 110 0 10 -7 24 -16 31 -20 17 -58 102 -86
192 -11 39 -33 84 -49 102 -21 24 -33 52 -43 106 -8 41 -12 77 -9 82 2 4 98 7
214 7 l209 0 0 -117 c0 -118 0 -118 -39 -189 l-39 -71 29 -17 c16 -9 34 -14
39 -11 6 4 10 -37 10 -114 0 -74 4 -121 10 -121 6 0 10 56 10 149 0 140 2 154
26 210 15 34 30 61 34 61 7 0 32 -63 75 -190 23 -68 38 -80 69 -57 17 12 16
18 -14 116 -18 56 -30 103 -28 105 25 17 72 26 132 26 75 0 132 16 155 44 8
10 10 31 6 63 -16 133 -17 160 -5 231 8 45 23 90 37 111 33 49 30 87 -10 125
-18 17 -38 43 -45 59 -6 15 -18 28 -27 28 -8 1 -19 2 -24 3 -4 0 -20 16 -35
34 -28 32 -62 41 -100 26 -38 -15 5 -78 66 -96 32 -9 44 -20 55 -46 17 -40 8
-55 -35 -58 -15 -1 -30 -3 -34 -3 -21 -3 -42 -60 -48 -133 -6 -64 -12 -85 -28
-98 -18 -15 -18 -17 -3 -27 11 -7 16 -24 16 -55 0 -69 -13 -78 -109 -78 l-82
0 -21 -42 -22 -43 0 88 -1 87 85 0 c52 0 85 4 85 10 0 7 -100 9 -308 6 l-309
-6 -23 93 c-18 69 -25 133 -29 257 -5 142 -9 170 -26 200 -17 28 -28 35 -55
37 -19 1 -44 -3 -56 -8z"/>
<path d="M1777 1583 c-24 -12 -27 -20 -27 -61 0 -60 11 -80 31 -56 8 10 14 27
14 38 0 13 6 21 17 21 10 0 23 6 30 13 6 6 22 12 34 12 25 0 41 17 28 30 -17
15 -100 17 -127 3z"/>
<path d="M2767 1547 c-21 -15 -32 -73 -23 -121 6 -33 10 -36 40 -36 37 0 52
13 58 50 1 14 13 29 26 35 24 11 28 35 12 66 -13 23 -85 27 -113 6z"/>
<path d="M2900 1391 c0 -85 2 -92 35 -142 19 -30 35 -57 35 -61 0 -14 47 -9
59 6 9 11 9 15 -1 19 -9 4 -8 6 3 6 10 1 19 13 23 32 5 25 10 30 28 27 24 -3
28 -28 13 -76 l-7 -23 133 3 134 3 3 148 3 147 -231 0 -230 0 0 -89z m100 54
c0 -10 -11 -15 -35 -15 -24 0 -35 5 -35 15 0 10 11 15 35 15 24 0 35 -5 35
-15z m35 -45 c-4 -6 7 -10 26 -10 18 0 30 -3 26 -6 -9 -9 -127 7 -127 17 0 5
18 9 41 9 24 0 38 -4 34 -10z m108 -17 c-7 -2 -19 -2 -25 0 -7 3 -2 5 12 5 14
0 19 -2 13 -5z m-120 -40 c-13 -2 -33 -2 -45 0 -13 2 -3 4 22 4 25 0 35 -2 23
-4z m90 -10 c-13 -2 -33 -2 -45 0 -13 2 -3 4 22 4 25 0 35 -2 23 -4z m-150
-30 c-7 -2 -19 -2 -25 0 -7 3 -2 5 12 5 14 0 19 -2 13 -5z m30 -20 c-7 -2 -19
-2 -25 0 -7 3 -2 5 12 5 14 0 19 -2 13 -5z m30 -40 c-13 -2 -33 -2 -45 0 -13
2 -3 4 22 4 25 0 35 -2 23 -4z"/>
<path d="M1735 1381 c-63 -26 -92 -145 -73 -301 5 -41 11 -93 12 -116 5 -62
14 -80 54 -110 30 -23 56 -31 148 -45 85 -13 118 -22 135 -38 22 -20 22 -22
10 -133 -17 -161 -15 -156 -59 -148 -20 4 -54 17 -74 29 l-38 23 0 78 c0 78 0
78 34 99 18 12 45 21 60 21 14 0 26 5 26 10 0 6 -50 10 -129 10 -106 0 -130
-3 -135 -15 -8 -21 -53 -10 -85 20 -17 16 -25 38 -28 72 -4 41 -1 54 26 93 17
25 31 48 31 53 1 35 -64 -59 -75 -110 -3 -17 -1 -50 5 -73 15 -57 55 -80 140
-80 111 0 110 1 110 -95 l0 -83 -49 -31 c-29 -19 -55 -29 -65 -25 -37 14 -64
-46 -28 -64 23 -13 42 -4 52 23 5 12 30 34 56 49 l47 26 43 -25 c24 -14 44
-32 44 -39 0 -28 36 -46 91 -46 30 0 61 -5 69 -10 11 -7 17 -5 22 8 6 16 7 16
7 0 1 -21 25 -22 126 -7 39 6 104 11 145 10 l75 0 -43 19 c-23 11 -45 27 -49
36 -3 9 1 85 10 168 l16 151 -29 119 c-17 65 -30 125 -30 132 0 20 216 20 223
0 3 -7 26 -17 51 -20 34 -5 46 -12 46 -24 0 -9 3 -35 7 -56 5 -34 4 -38 -10
-33 -10 4 -17 1 -17 -6 0 -16 29 -59 47 -70 7 -4 13 -17 13 -28 0 -11 7 -33
15 -49 15 -30 15 -30 -14 -30 -16 0 -33 -4 -36 -10 -4 -6 7 -10 25 -10 18 0
45 -9 61 -21 27 -19 29 -25 29 -83 0 -47 -4 -67 -17 -78 -28 -24 -65 -41 -92
-42 -32 -1 -49 -29 -32 -50 19 -23 40 -20 52 8 7 14 30 34 53 47 l42 22 41
-22 c27 -13 43 -28 45 -43 4 -31 47 -38 55 -9 7 26 10 26 52 0 18 -11 35 -18
37 -16 2 2 -9 21 -26 42 -17 21 -27 41 -22 44 5 3 27 45 50 94 22 48 44 87 47
87 4 0 4 -24 0 -52 -3 -29 -7 -90 -9 -135 l-4 -83 79 0 c43 0 79 2 79 5 0 3
-21 15 -46 26 l-47 19 6 58 c3 31 11 112 18 180 12 109 11 124 -3 138 -8 9
-73 33 -144 54 -114 33 -131 36 -150 24 -11 -8 -38 -15 -59 -17 -38 -2 -38 -2
-51 48 -18 66 -18 65 14 65 50 0 53 8 50 126 l-3 109 -104 3 c-67 2 -108 -1
-117 -9 -10 -8 -14 -36 -14 -95 l0 -83 -263 2 c-144 1 -276 -1 -292 -4 -25 -6
-23 -7 17 -8 26 0 49 -5 53 -10 3 -5 2 -41 -1 -79 l-7 -70 -81 44 c-92 49 -91
48 -99 187 l-5 88 35 -27 36 -27 17 24 c18 23 18 24 -9 54 -81 91 -140 145
-159 145 -11 0 -26 2 -34 4 -7 3 -22 1 -33 -3z m35 -264 c0 -24 13 -48 50 -95
28 -34 59 -62 68 -62 20 0 62 -27 62 -40 0 -15 -31 -40 -50 -40 -11 0 -30 15
-43 34 -12 19 -50 55 -83 81 -101 78 -112 151 -21 154 13 1 17 -7 17 -32z
m494 -250 l46 -118 -16 -152 c-8 -83 -16 -153 -18 -154 -2 -2 -21 3 -43 12
l-39 16 -23 139 c-17 107 -20 147 -13 172 6 18 18 69 28 113 16 79 23 99 29
93 2 -2 24 -56 49 -121z m448 48 c3 -14 1 -25 -3 -25 -5 0 -9 11 -9 25 0 14 2
25 4 25 2 0 6 -11 8 -25z m206 -137 c7 -7 12 -20 12 -30 0 -12 8 -18 23 -18
47 0 47 -12 -4 -102 -27 -48 -49 -92 -49 -97 0 -4 -7 -14 -15 -21 -8 -7 -12
-16 -9 -21 9 -15 -6 -10 -42 12 -33 20 -34 22 -34 91 0 60 3 72 23 89 12 10
34 18 50 19 15 0 27 5 27 10 0 6 -22 10 -49 10 -53 0 -55 1 -65 43 l-6 27 63
0 c36 0 68 -5 75 -12z"/>
<path d="M1587 1168 c9 -66 9 -82 0 -135 -8 -49 7 -59 17 -12 13 66 3 199 -16
199 -5 0 -6 -22 -1 -52z"/>
<path d="M4977 1196 c-23 -59 -13 -216 13 -216 4 0 4 17 -2 38 -10 37 -6 142
7 175 4 9 3 17 -3 17 -5 0 -12 -6 -15 -14z"/>
<path d="M970 1122 c0 -7 4 -20 9 -30 5 -9 16 -35 25 -57 8 -22 15 -32 15 -23
1 20 -27 98 -41 113 -5 5 -8 4 -8 -3z"/>
<path d="M4485 1110 c3 -5 18 -10 33 -9 24 0 25 1 7 9 -28 12 -47 12 -40 0z"/>
<path d="M2080 1088 c0 -5 30 -8 68 -7 52 0 62 2 44 10 -27 10 -112 8 -112 -3z"/>
<path d="M2898 1053 c6 -2 18 -2 25 0 6 3 1 5 -13 5 -14 0 -19 -2 -12 -5z"/>
<path d="M4920 984 c0 -3 14 -25 30 -49 23 -33 30 -55 30 -90 0 -59 -13 -83
-55 -101 -44 -18 -55 -18 -55 1 0 13 -21 15 -130 15 -80 0 -130 -4 -130 -10 0
-5 11 -10 24 -10 13 0 38 -8 55 -17 l31 -18 -2 -90 -3 -89 -40 -23 c-32 -18
-41 -19 -47 -8 -14 23 -70 -2 -100 -46 -31 -44 -30 -46 14 -23 28 15 32 15 40
0 15 -26 48 -19 61 13 6 17 27 37 52 51 l42 23 45 -27 c25 -14 50 -38 56 -52
14 -29 48 -30 65 -2 15 22 -7 48 -42 48 -14 0 -44 11 -66 23 l-40 23 -3 88
c-2 65 1 92 10 98 7 4 48 8 90 8 71 0 80 2 109 28 26 23 33 38 37 80 4 46 1
58 -29 107 -29 48 -49 68 -49 49z"/>
<path d="M1041 834 c0 -11 3 -14 6 -6 3 7 2 16 -1 19 -3 4 -6 -2 -5 -13z"/>
<path d="M4142 632 c16 -19 57 -38 98 -47 19 -4 38 -12 41 -17 3 -5 11 3 17
17 11 23 10 25 -16 25 -15 0 -36 6 -47 14 -11 7 -39 15 -62 17 -34 4 -40 2
-31 -9z"/>
</g>
</svg>
